<?xml version="1.0" ?><svg id="Layer_1_1_" style="enable-background:new 0 0 128 128;" version="1.1" viewBox="0 0 128 128" xml:space="preserve" xmlns="http://www.w3.org/2000/svg" xmlns:xlink="http://www.w3.org/1999/xlink"><g><path d="M123,22h-8v-2c0-1.103-0.897-2-2-2h-8c-1.103,0-2,0.897-2,2v2h-2v-2c0-1.103-0.897-2-2-2h-8c-1.103,0-2,0.897-2,2v2h-2v-2   c0-1.103-0.897-2-2-2h-8c-1.103,0-2,0.897-2,2v2h-2v-2c0-1.103-0.897-2-2-2h-8c-1.103,0-2,0.897-2,2v2h-2v-2c0-1.103-0.897-2-2-2   h-8c-1.103,0-2,0.897-2,2v2h-2v-2c0-1.103-0.897-2-2-2h-8c-1.103,0-2,0.897-2,2v2h-2v-2c0-1.103-0.897-2-2-2h-8   c-1.103,0-2,0.897-2,2v2h-2v-2c0-1.103-0.897-2-2-2H7c-1.103,0-2,0.897-2,2v2c-2.206,0-4,1.794-4,4v58c0,2.206,1.794,4,4,4v8.333   l3,4V110h6v-9.667l3-4V88h2v8.333l3,4V110h6v-9.667l3-4V88h2v8.333l3,4V110h6v-9.667l3-4V88h2v8.333l3,4V110h6v-9.667l3-4V88h2   v8.333l3,4V110h6v-9.667l3-4V88h2v8.333l3,4V110h6v-9.667l3-4V88h2v8.333l3,4V110h6v-9.667l3-4V88h2v8.333l3,4V110h6v-9.667l3-4V88   h8c2.206,0,4-1.794,4-4V26C127,23.794,125.206,22,123,22z M105,20h8v2h-8V20z M91,20h8v2h-8V20z M77,20h8v2h-8V20z M63,20h8v2h-8   V20z M49,20h8v2h-8V20z M35,20h8v2h-8V20z M21,20h8v2h-8V20z M7,20h8v2H7V20z M12,99.667V108h-2v-8.333l-3-4V92h8v3.667L12,99.667z    M15,90H7v-2h8V90z M26,99.667V108h-2v-8.333l-3-4V92h8v3.667L26,99.667z M29,90h-8v-2h8V90z M40,99.667V108h-2v-8.333l-3-4V92h8   v3.667L40,99.667z M43,90h-8v-2h8V90z M54,99.667V108h-2v-8.333l-3-4V92h8v3.667L54,99.667z M57,90h-8v-2h8V90z M68,99.667V108h-2   v-8.333l-3-4V92h8v3.667L68,99.667z M71,90h-8v-2h8V90z M82,99.667V108h-2v-8.333l-3-4V92h8v3.667L82,99.667z M85,90h-8v-2h8V90z    M96,99.667V108h-2v-8.333l-3-4V92h8v3.667L96,99.667z M99,90h-8v-2h8V90z M110,99.667V108h-2v-8.333l-3-4V92h8v3.667L110,99.667z    M113,90h-8v-2h8V90z M103,86h-2H89h-2H75h-2H61h-2H47h-2H33h-2H19h-2H5c-1.103,0-2-0.897-2-2V26c0-1.103,0.897-2,2-2h110   c1.103,0,2,0.897,2,2v22h-3c-1.654,0-3,1.346-3,3v10c0,1.654,1.346,3,3,3h3v20c0,1.103-0.897,2-2,2H103z M125,84   c0,1.103-0.897,2-2,2h-4.556c0.344-0.591,0.556-1.268,0.556-2V62h-5c-0.552,0-1-0.449-1-1V51c0-0.551,0.448-1,1-1h5V26   c0-0.732-0.212-1.409-0.556-2H123c1.103,0,2,0.897,2,2V84z"/><path d="M10,34c1.654,0,3-1.346,3-3s-1.346-3-3-3s-3,1.346-3,3S8.346,34,10,34z M10,30c0.552,0,1,0.449,1,1s-0.448,1-1,1   s-1-0.449-1-1S9.448,30,10,30z"/><path d="M10,76c-1.654,0-3,1.346-3,3s1.346,3,3,3s3-1.346,3-3S11.654,76,10,76z M10,80c-0.552,0-1-0.449-1-1s0.448-1,1-1   s1,0.449,1,1S10.552,80,10,80z"/><path d="M110,34c1.654,0,3-1.346,3-3s-1.346-3-3-3s-3,1.346-3,3S108.346,34,110,34z M110,30c0.552,0,1,0.449,1,1s-0.448,1-1,1   s-1-0.449-1-1S109.448,30,110,30z"/><path d="M110,76c-1.654,0-3,1.346-3,3s1.346,3,3,3s3-1.346,3-3S111.654,76,110,76z M110,80c-0.552,0-1-0.449-1-1s0.448-1,1-1   s1,0.449,1,1S110.552,80,110,80z"/><path d="M107,38c0-1.103-0.897-2-2-2H15c-1.103,0-2,0.897-2,2v34c0,1.103,0.897,2,2,2h90c1.103,0,2-0.897,2-2V38z M105,72H15V38h90   V72z"/><rect height="26" width="2" x="97" y="42"/><path d="M81,66h5v-2h-5v-2h12v2h-5v2h5v2h2V42h-2v2H81v-2h-2v26h2V66z M81,60v-2h5v-2h-5v-2h12v2h-5v2h5v2H81z M93,46v2h-5v2h5v2   H81v-2h5v-2h-5v-2H93z"/><path d="M63,66h5v-2h-5v-2h12v2h-5v2h5v2h2V42h-2v2H63v-2h-2v26h2V66z M63,60v-2h5v-2h-5v-2h12v2h-5v2h5v2H63z M75,46v2h-5v2h5v2   H63v-2h5v-2h-5v-2H75z"/><path d="M45,66h5v-2h-5v-2h12v2h-5v2h5v2h2V42h-2v2H45v-2h-2v26h2V66z M45,60v-2h5v-2h-5v-2h12v2h-5v2h5v2H45z M57,46v2h-5v2h5v2   H45v-2h5v-2h-5v-2H57z"/><path d="M27,66h5v-2h-5v-2h12v2h-5v2h5v2h2V42h-2v2H27v-2h-2v26h2V66z M27,60v-2h5v-2h-5v-2h12v2h-5v2h5v2H27z M39,46v2h-5v2h5v2   H27v-2h5v-2h-5v-2H39z"/><rect height="26" width="2" x="21" y="42"/></g></svg>