<?xml version="1.0" ?><svg id="Layer_1_1_" style="enable-background:new 0 0 128 128;" version="1.1" viewBox="0 0 128 128" xml:space="preserve" xmlns="http://www.w3.org/2000/svg" xmlns:xlink="http://www.w3.org/1999/xlink"><g><path d="M14,119.764V127h113l-0.005-13.1l-3.64-36.398C123.098,74.936,120.959,73,118.38,73H25.62   c-2.579,0-4.718,1.936-4.976,4.502L19.495,89H12v-6h2V24.004l-2-13.083V4c0-0.869-0.376-1.695-1.032-2.265   c-0.657-0.57-1.531-0.827-2.398-0.705C7.104,1.236,6,2.579,6,4.154v6.768L4.024,23.766L4,83h2v6H5c-2.206,0-4,1.794-4,4   s1.794,4,4,4h13.695l-1.672,16.717L14,119.764z M102.382,115l-2,4H16.618l2-4H102.382z M125,115v4h-22.382l2-4H125z M122.497,89   H118v2h4.697l0.3,3H118v2h5.198l0.3,3H118v2h5.698l0.3,3h-11.893l1.8-18h8.291L122.497,89z M16,125v-4h84v4H16z M102,125v-4h23v4   H102z M111.62,75h6.76c1.548,0,2.831,1.162,2.985,2.702L121.996,84h-9.901l-2.2,22h14.304l0.701,7h-19.795l3.53-35.298   C108.789,76.162,110.072,75,111.62,75z M22.635,77.702C22.789,76.162,24.072,75,25.62,75h81.994   c-0.528,0.707-0.875,1.562-0.97,2.502L103.095,113h-83.99L22.635,77.702z M6,24.078l1.976-12.844L8,4.154   C8,3.65,8.317,3.085,8.849,3.011c0.3-0.043,0.586,0.041,0.807,0.234C9.874,3.435,10,3.71,10,4v6.996l2,13.083V81H6V24.078z M8,83h2   v6H8V83z M5,95c-1.103,0-2-0.897-2-2s0.897-2,2-2h14.295l-0.4,4H5z"/><path d="M101.113,79H27.102l-3.215,30h74.012L101.113,79z M26.113,107l2.785-26h69.988l-2.785,26H26.113z"/><rect height="2" width="2" x="39" y="95"/><rect height="2" width="2" x="60" y="95"/><rect height="2" width="2" x="81" y="95"/><rect height="2" width="2" x="39" y="85"/><rect height="2" width="2" x="60" y="85"/><rect height="2" width="2" x="81" y="85"/><path d="M82,91c-2.757,0-5,2.243-5,5s2.243,5,5,5s5-2.243,5-5S84.757,91,82,91z M82,99c-1.654,0-3-1.346-3-3s1.346-3,3-3   s3,1.346,3,3S83.654,99,82,99z"/><path d="M61,91c-2.757,0-5,2.243-5,5s2.243,5,5,5s5-2.243,5-5S63.757,91,61,91z M61,99c-1.654,0-3-1.346-3-3s1.346-3,3-3   s3,1.346,3,3S62.654,99,61,99z"/><path d="M40,91c-2.757,0-5,2.243-5,5s2.243,5,5,5s5-2.243,5-5S42.757,91,40,91z M40,99c-1.654,0-3-1.346-3-3s1.346-3,3-3   s3,1.346,3,3S41.654,99,40,99z"/><path d="M54.506,52.506l1.414,1.414C61.775,48.066,65,40.281,65,32s-3.225-16.066-9.08-21.92l-1.414,1.414   C59.983,16.971,63,24.253,63,32S59.983,47.029,54.506,52.506z"/><path d="M50.264,48.264l1.414,1.414C56.399,44.956,59,38.677,59,32s-2.601-12.956-7.322-17.678l-1.414,1.414   C54.607,20.081,57,25.857,57,32S54.607,43.919,50.264,48.264z"/><path d="M46.021,44.021l1.414,1.414C51.023,41.847,53,37.076,53,32s-1.977-9.847-5.565-13.435l-1.414,1.414   C49.231,23.19,51,27.459,51,32S49.231,40.81,46.021,44.021z"/><path d="M43.192,41.192C45.647,38.738,47,35.473,47,32c0-3.473-1.353-6.737-3.808-9.192l-1.414,1.414   C43.855,26.299,45,29.062,45,32c0,2.939-1.145,5.701-3.222,7.778L43.192,41.192z"/></g></svg>