<?xml version="1.0" ?><svg id="Layer_1_1_" style="enable-background:new 0 0 128 128;" version="1.1" viewBox="0 0 128 128" xml:space="preserve" xmlns="http://www.w3.org/2000/svg" xmlns:xlink="http://www.w3.org/1999/xlink"><g><path d="M64.633,52.828l-1.46,1.366C68.22,59.587,71,66.621,71,74c0,15.99-13.009,29-29,29c-7.378,0-14.413-2.779-19.806-7.827   l-1.366,1.461C26.593,102.028,34.112,105,42,105c17.093,0,31-13.906,31-31C73,66.111,70.029,58.592,64.633,52.828z"/><path d="M42,45c7.379,0,14.413,2.78,19.806,7.827l1.366-1.46C57.408,45.971,49.889,43,42,43c-17.093,0-31,13.907-31,31   c0,7.888,2.971,15.407,8.367,21.173l1.46-1.367C15.78,88.412,13,81.379,13,74C13,58.009,26.009,45,42,45z"/><path d="M42,49c-13.785,0-25,11.215-25,25s11.215,25,25,25s25-11.215,25-25S55.785,49,42,49z M42,97c-12.682,0-23-10.317-23-23   c0-12.682,10.318-23,23-23s23,10.318,23,23C65,86.683,54.682,97,42,97z"/><path d="M56,63H38h-3h-7c-1.654,0-3,1.346-3,3v16c0,1.654,1.346,3,3,3h7h3h18c1.654,0,3-1.346,3-3V66C59,64.346,57.654,63,56,63z    M27,82V66c0-0.552,0.449-1,1-1h4.184C32.072,65.314,32,65.648,32,66v16c0,0.352,0.072,0.686,0.184,1H28C27.449,83,27,82.552,27,82   z M57,82c0,0.552-0.449,1-1,1H38h-3c-0.551,0-1-0.448-1-1V66c0-0.552,0.449-1,1-1h3h18c0.551,0,1,0.448,1,1V82z"/><rect height="4" width="2" x="48" y="67"/><rect height="2" width="4" x="51" y="72"/><rect height="4" width="2" x="48" y="75"/><rect height="2" width="4" x="43" y="72"/><path d="M120,25h-10v-3c0-1.654-1.346-3-3-3H93c-1.654,0-3,1.346-3,3v3h-2v-3c0-1.654-1.346-3-3-3H75c-1.654,0-3,1.346-3,3v3H8   c-3.86,0-7,3.14-7,7v70c0,3.859,3.14,7,7,7h34h9h50h1h18c3.86,0,7-3.141,7-7V32C127,28.14,123.86,25,120,25z M56.18,35H35.82   l-1.6-8H57.78L56.18,35z M59.82,27H102c2.414,0,4.434,1.721,4.899,4H59.02L59.82,27z M125,33v64h-16V33H125z M124.899,31H108.92   c-0.224-1.557-0.956-2.949-2.031-4H120C122.414,27,124.434,28.721,124.899,31z M108,22v3h-2v-3c0-0.352-0.072-0.686-0.184-1H107   C107.551,21,108,21.449,108,22z M92,22c0-0.551,0.449-1,1-1h10c0.551,0,1,0.449,1,1v3H92V22z M86,22v3h-2v-3   c0-0.352-0.072-0.686-0.184-1H85C85.551,21,86,21.449,86,22z M74,22c0-0.551,0.449-1,1-1h6c0.551,0,1,0.449,1,1v3h-8V22z M8,27   h24.18l0.8,4H14v2h19.38l0.8,4h23.64l0.8-4H107v64H77.348C82.729,90.844,86,82.799,86,74c0-19.299-15.701-35-35-35h-9   C22.701,39,7,54.701,7,74c0,8.799,3.271,16.844,8.652,23H3V33h9v-2H3.101C3.566,28.721,5.586,27,8,27z M54.075,106.852   C67.442,101.923,77,89.057,77,74s-9.558-27.923-22.925-32.852C70.834,42.705,84,56.841,84,74S70.834,105.295,54.075,106.852z    M8,107c-2.757,0-5-2.243-5-5v-3h14.539c3.605,3.528,7.965,6.283,12.815,8H8z M9,74c0-18.196,14.804-33,33-33s33,14.804,33,33   s-14.804,33-33,33S9,92.196,9,74z M101,107H62.646c4.85-1.717,9.21-4.472,12.815-8H107v3c0,2.757-2.243,5-5,5H101z M120,107   h-13.111c1.3-1.272,2.111-3.042,2.111-5v-3h16v3C125,104.757,122.757,107,120,107z"/><path d="M86,57h8h4h4c1.654,0,3-1.346,3-3v-8c0-1.654-1.346-3-3-3h-4h-4h-8c-1.654,0-3,1.346-3,3v8C83,55.654,84.346,57,86,57z    M103,46v8c0,0.551-0.449,1-1,1h-1.184c0.112-0.314,0.184-0.648,0.184-1v-8c0-0.352-0.072-0.686-0.184-1H102   C102.551,45,103,45.449,103,46z M85,46c0-0.551,0.449-1,1-1h8h4c0.551,0,1,0.449,1,1v8c0,0.551-0.449,1-1,1h-4h-8   c-0.551,0-1-0.449-1-1V46z"/><path d="M102,89c-1.654,0-3,1.346-3,3s1.346,3,3,3s3-1.346,3-3S103.654,89,102,89z M102,93c-0.551,0-1-0.448-1-1s0.449-1,1-1   s1,0.448,1,1S102.551,93,102,93z"/><path d="M102,41c1.654,0,3-1.346,3-3s-1.346-3-3-3s-3,1.346-3,3S100.346,41,102,41z M102,37c0.551,0,1,0.449,1,1s-0.449,1-1,1   s-1-0.449-1-1S101.449,37,102,37z"/><path d="M5,92c0,1.654,1.346,3,3,3s3-1.346,3-3s-1.346-3-3-3S5,90.346,5,92z M8,91c0.551,0,1,0.448,1,1s-0.449,1-1,1s-1-0.448-1-1   S7.449,91,8,91z"/><path d="M8,35c-1.654,0-3,1.346-3,3s1.346,3,3,3s3-1.346,3-3S9.654,35,8,35z M8,39c-0.551,0-1-0.449-1-1s0.449-1,1-1s1,0.449,1,1   S8.551,39,8,39z"/><rect height="2" width="2" x="95" y="47"/><rect height="2" width="2" x="95" y="51"/><rect height="2" width="2" x="91" y="47"/><rect height="2" width="2" x="87" y="47"/><rect height="2" width="2" x="91" y="51"/><rect height="2" width="2" x="87" y="51"/></g></svg>