<?xml version="1.0" ?><svg id="Layer_1_1_" style="enable-background:new 0 0 128 128;" version="1.1" viewBox="0 0 128 128" xml:space="preserve" xmlns="http://www.w3.org/2000/svg" xmlns:xlink="http://www.w3.org/1999/xlink"><g><path d="M122,37h-10v-1c0-1.654-1.346-3-3-3v-2c0-1.103-0.897-2-2-2h-2v-5c0-1.654-1.346-3-3-3H48c-1.103,0-2-0.897-2-2   s0.897-2,2-2h15v-2H48c-2.206,0-4,1.794-4,4s1.794,4,4,4h54c0.551,0,1,0.449,1,1v5h-2c-1.103,0-2,0.897-2,2v2c-1.654,0-3,1.346-3,3   v1H6c-2.757,0-5,2.243-5,5v80c0,2.757,2.243,5,5,5h116c2.757,0,5-2.243,5-5V42C127,39.243,124.757,37,122,37z M101,31h6v2h-6V31z    M98,36c0-0.551,0.449-1,1-1h10c0.551,0,1,0.449,1,1v1H98V36z M6,39h104c1.654,0,3,1.346,3,3v71H3V42C3,40.346,4.346,39,6,39z    M6,125c-1.654,0-3-1.346-3-3v-7h110v7c0,1.654-1.346,3-3,3H6z M125,122c0,1.654-1.346,3-3,3h-8.026   c0.635-0.838,1.026-1.87,1.026-3V42c0-1.13-0.391-2.162-1.026-3H122c1.654,0,3,1.346,3,3V122z"/><path d="M37,123h42v-6H37V123z M39,119h38v2H39V119z"/><path d="M117,71h6V57h-6V71z M119,59h2v10h-2V59z"/><path d="M117,89h6V75h-6V89z M119,77h2v10h-2V77z"/><path d="M8,47c1.654,0,3-1.346,3-3s-1.346-3-3-3s-3,1.346-3,3S6.346,47,8,47z M8,43c0.551,0,1,0.449,1,1s-0.449,1-1,1s-1-0.449-1-1   S7.449,43,8,43z"/><path d="M108,47c1.654,0,3-1.346,3-3s-1.346-3-3-3s-3,1.346-3,3S106.346,47,108,47z M108,43c0.551,0,1,0.449,1,1s-0.449,1-1,1   s-1-0.449-1-1S107.449,43,108,43z"/><path d="M8,111c1.654,0,3-1.346,3-3s-1.346-3-3-3s-3,1.346-3,3S6.346,111,8,111z M8,107c0.551,0,1,0.448,1,1s-0.449,1-1,1   s-1-0.448-1-1S7.449,107,8,107z"/><path d="M108,111c1.654,0,3-1.346,3-3s-1.346-3-3-3s-3,1.346-3,3S106.346,111,108,111z M108,107c0.551,0,1,0.448,1,1s-0.449,1-1,1   s-1-0.448-1-1S107.449,107,108,107z"/><path d="M57.493,110.987c0.085,0.002,0.168,0.013,0.254,0.013h0.506c0.086,0,0.169-0.011,0.254-0.013   c18.896-0.271,34.209-15.585,34.48-34.48C92.989,76.422,93,76.339,93,76.253v-0.506c0-0.086-0.011-0.169-0.013-0.254   c-0.271-18.896-15.585-34.209-34.48-34.48C58.422,41.011,58.339,41,58.253,41h-0.506c-0.086,0-0.169,0.011-0.254,0.013   c-18.896,0.271-34.209,15.585-34.48,34.48C23.011,75.578,23,75.661,23,75.747v0.506c0,0.086,0.011,0.169,0.013,0.254   C23.284,95.403,38.597,110.716,57.493,110.987z M51.08,77c0.02,0.138,0.036,0.277,0.063,0.412l-0.825,0.687l-19.072,7.9   c-3.467-1.607-5.932-5.003-6.209-8.999H51.08z M58,71c2.757,0,5,2.243,5,5s-2.243,5-5,5s-5-2.243-5-5S55.243,71,58,71z    M45.153,82.404l-2.526,2.105C40.699,86.115,38.256,87,35.747,87c-0.487,0-0.962-0.044-1.432-0.107L45.153,82.404z M35.747,89   c2.976,0,5.874-1.049,8.16-2.954l7.459-6.216l0.624-0.258c0.126,0.212,0.263,0.416,0.411,0.613L33.986,98.6   c-2.492-2.647-4.551-5.703-6.068-9.057l3.328-1.379C32.649,88.696,34.161,89,35.747,89z M53.815,81.598   c0.197,0.147,0.401,0.285,0.613,0.411l-0.259,0.624l-6.215,7.458C46.049,92.379,45,95.277,45,98.253   c0,1.586,0.304,3.099,0.836,4.501l-1.378,3.328c-3.354-1.516-6.41-3.575-9.057-6.067L53.815,81.598z M47,98.253   c0-2.509,0.885-4.953,2.491-6.88l2.106-2.527l-4.49,10.839C47.044,99.216,47,98.74,47,98.253z M55.901,83.681l0.687-0.825   C56.723,82.884,56.862,82.9,57,82.92v26.042c-3.996-0.277-7.392-2.742-8.999-6.209L55.901,83.681z M59,108.962V82.92   c0.138-0.02,0.277-0.036,0.412-0.063l0.687,0.825l7.9,19.072C66.392,106.22,62.996,108.685,59,108.962z M64.403,88.846l2.106,2.527   C68.115,93.3,69,95.744,69,98.253c0,0.487-0.044,0.963-0.107,1.432L64.403,88.846z M68.045,90.092l-6.215-7.458l-0.259-0.624   c0.212-0.127,0.416-0.264,0.613-0.411l18.415,18.416c-2.647,2.492-5.703,4.551-9.057,6.067l-1.378-3.328   C70.696,101.352,71,99.839,71,98.253C71,95.277,69.951,92.379,68.045,90.092z M63.599,80.184c0.147-0.197,0.284-0.401,0.411-0.613   l0.624,0.258l7.459,6.216C74.379,87.951,77.277,89,80.253,89c1.586,0,3.098-0.304,4.5-0.836l3.328,1.379   c-1.516,3.354-3.575,6.41-6.068,9.057L63.599,80.184z M80.253,87c-2.509,0-4.952-0.885-6.88-2.491l-2.526-2.105l10.838,4.49   C81.215,86.956,80.74,87,80.253,87z M65.681,78.099l-0.825-0.687C64.885,77.277,64.9,77.138,64.92,77h26.042   c-0.277,3.997-2.743,7.392-6.209,8.999L65.681,78.099z M64.92,75c-0.02-0.138-0.036-0.277-0.063-0.412l0.824-0.687l19.072-7.9   c3.466,1.607,5.932,5.003,6.209,8.999H64.92z M70.846,69.597l2.527-2.105C75.3,65.885,77.744,65,80.253,65   c0.487,0,0.963,0.044,1.432,0.107L70.846,69.597z M80.253,63c-2.976,0-5.875,1.049-8.16,2.954l-7.459,6.216l-0.624,0.258   c-0.126-0.212-0.263-0.416-0.411-0.613L82.014,53.4c2.492,2.647,4.551,5.703,6.068,9.057l-3.328,1.378   C83.352,63.304,81.839,63,80.253,63z M62.185,70.402c-0.197-0.148-0.401-0.285-0.613-0.411l0.259-0.625l6.215-7.459   C69.951,59.622,71,56.723,71,53.747c0-1.586-0.304-3.099-0.836-4.501l1.378-3.328c3.354,1.516,6.41,3.575,9.057,6.068   L62.185,70.402z M69,53.747c0,2.509-0.885,4.953-2.491,6.88l-2.106,2.527l4.49-10.839C68.956,52.784,69,53.26,69,53.747z    M60.099,68.319l-0.687,0.825C59.277,69.115,59.138,69.1,59,69.08V43.038c3.996,0.277,7.392,2.742,8.999,6.209L60.099,68.319z    M57,43.038V69.08c-0.138,0.02-0.277,0.036-0.412,0.063l-0.687-0.825l-7.9-19.072C49.608,45.78,53.004,43.315,57,43.038z    M51.597,63.154l-2.106-2.527C47.885,58.7,47,56.256,47,53.747c0-0.487,0.044-0.963,0.107-1.432L51.597,63.154z M47.955,61.907   l6.215,7.459l0.259,0.625c-0.212,0.127-0.416,0.264-0.613,0.411L35.4,51.986c2.647-2.492,5.703-4.551,9.057-6.068l1.378,3.328   C45.304,50.648,45,52.161,45,53.747C45,56.723,46.049,59.622,47.955,61.907z M52.401,71.816c-0.147,0.197-0.284,0.401-0.411,0.613   l-0.624-0.258l-7.459-6.216C41.622,64.049,38.723,63,35.747,63c-1.586,0-3.099,0.304-4.501,0.836l-3.328-1.378   c1.516-3.354,3.575-6.41,6.068-9.057L52.401,71.816z M35.747,65c2.509,0,4.953,0.885,6.88,2.491l2.527,2.105l-10.839-4.49   C34.784,65.044,35.26,65,35.747,65z M50.319,73.901l0.824,0.687C51.115,74.723,51.1,74.862,51.08,75H25.038   c0.277-3.996,2.742-7.392,6.209-8.999L50.319,73.901z M28.885,86.978l-1.736,0.719c-0.383-1.006-0.717-2.034-1.001-3.084   C26.943,85.525,27.863,86.322,28.885,86.978z M46.303,106.851l0.719-1.736c0.656,1.022,1.453,1.942,2.365,2.737   C48.338,107.568,47.309,107.234,46.303,106.851z M68.978,105.116l0.719,1.736c-1.006,0.383-2.034,0.717-3.084,1.001   C67.525,107.057,68.321,106.138,68.978,105.116z M88.851,87.697l-1.736-0.719c1.022-0.656,1.942-1.453,2.737-2.365   C89.568,85.663,89.234,86.691,88.851,87.697z M87.116,65.022l1.736-0.719c0.383,1.006,0.717,2.034,1.001,3.084   C89.057,66.475,88.138,65.679,87.116,65.022z M69.697,45.149l-0.719,1.736c-0.656-1.022-1.453-1.942-2.365-2.737   C67.663,44.432,68.691,44.766,69.697,45.149z M47.022,46.884l-0.719-1.736c1.006-0.383,2.034-0.717,3.083-1.001   C48.475,44.943,47.678,45.862,47.022,46.884z M27.149,64.303l1.736,0.719c-1.022,0.656-1.942,1.453-2.737,2.365   C26.432,66.338,26.766,65.309,27.149,64.303z"/><path d="M9,19h14.351l5-4H35v-2h4v-2h76c1.103,0,2,0.897,2,2s-0.897,2-2,2H77v2h38c2.206,0,4-1.794,4-4s-1.794-4-4-4H39V7h-4V5   h-6.649l-5-4H9v2H1v14h8V19z M37,9v2h-2V9H37z M11,3h11.649l5,4H33v6h-5.351l-5,4H11V3z M3,15V5h6v10H3z"/><rect height="2" width="2" x="5" y="11"/><rect height="2" width="2" x="5" y="7"/><rect height="10" width="2" x="21" y="5"/><rect height="10" width="2" x="17" y="5"/><rect height="10" width="2" x="13" y="5"/><rect height="2" width="2" x="65" y="15"/><rect height="2" width="2" x="69" y="15"/><rect height="2" width="2" x="73" y="15"/></g></svg>